<?xml version="1.0" encoding="UTF-8" standalone="no"?>
<svg
   xmlns:dc="http://purl.org/dc/elements/1.1/"
   xmlns:cc="http://creativecommons.org/ns#"
   xmlns:rdf="http://www.w3.org/1999/02/22-rdf-syntax-ns#"
   xmlns:svg="http://www.w3.org/2000/svg"
   xmlns="http://www.w3.org/2000/svg"
   width="47.409mm"
   height="84.073303mm"
   viewBox="0 0 47.409 84.0733"
   version="1.1"
   id="svg9566">
  <defs
     id="defs9560" />
  <metadata
     id="metadata9563">
    <rdf:RDF>
      <cc:Work
         rdf:about="">
        <dc:format>image/svg+xml</dc:format>
        <dc:type
           rdf:resource="http://purl.org/dc/dcmitype/StillImage" />
        <dc:title></dc:title>
      </cc:Work>
    </rdf:RDF>
  </metadata>
  <g
     id="layer1"
     transform="translate(-100.5184,-63.74902)">
    <g
       id="g9530"
       transform="translate(-1376.4952,-678.84496)">
      <path
         id="path2482"
         style="color:#000000;font-style:normal;font-variant:normal;font-weight:bold;font-stretch:normal;font-size:medium;line-height:1.25;font-family:'Sitka Text';-inkscape-font-specification:'Sitka Text Bold';font-variant-ligatures:normal;font-variant-position:normal;font-variant-caps:normal;font-variant-numeric:normal;font-variant-alternates:normal;font-variant-east-asian:normal;font-feature-settings:normal;font-variation-settings:normal;text-indent:0;text-align:start;text-decoration:none;text-decoration-line:none;text-decoration-style:solid;text-decoration-color:#000000;letter-spacing:0px;word-spacing:0px;text-transform:none;writing-mode:lr-tb;direction:ltr;text-orientation:mixed;dominant-baseline:auto;baseline-shift:baseline;text-anchor:start;white-space:normal;shape-padding:0;shape-margin:0;inline-size:0;clip-rule:nonzero;display:inline;overflow:visible;visibility:visible;isolation:auto;mix-blend-mode:normal;color-interpolation:sRGB;color-interpolation-filters:linearRGB;solid-color:#000000;solid-opacity:1;vector-effect:none;fill:#1560a0;fill-opacity:1;fill-rule:nonzero;stroke:none;stroke-width:2.80773;stroke-linecap:butt;stroke-linejoin:miter;stroke-miterlimit:4;stroke-dasharray:none;stroke-dashoffset:0;stroke-opacity:1;color-rendering:auto;image-rendering:auto;shape-rendering:auto;text-rendering:auto;enable-background:accumulate;stop-color:#000000;stop-opacity:1"
         d="m 1498.1615,742.59416 c -2.3011,7.9e-4 -4.5086,0.1909 -6.6223,0.57205 -2.0777,0.37465 -4.0119,0.83601 -5.8028,1.387 -1.7244,0.50766 -3.2754,1.03463 -4.6524,1.58544 l -0.01,0.002 -0.01,0.002 c -1.2993,0.53301 -2.3497,0.96631 -3.1522,1.30067 l -0.8982,0.37518 0.5328,14.70504 h 4.4943 l 0.3633,-0.2558 c 0.8971,-0.63127 2.0115,-1.41431 3.3419,-2.34559 v -0.002 -0.002 c 1.3178,-0.93208 2.7539,-1.83608 4.3083,-2.7109 l 0.01,-0.004 v -0.002 c 1.5616,-0.85968 3.1866,-1.59298 4.8767,-2.19882 l 0.01,-0.004 0.012,-0.004 c 1.6246,-0.61301 3.1817,-0.90588 4.6953,-0.90588 1.4954,0 2.5895,0.27252 3.3378,0.70694 l 0.016,0.01 0.016,0.008 c 0.8156,0.44728 1.3741,1.01177 1.7813,1.77509 l 0.01,0.0155 0.01,0.016 c 0.472,0.83294 0.8048,1.81242 0.9824,2.96675 0.1878,1.22116 0.2832,2.51325 0.2832,3.87884 0,1.83642 -0.2512,3.38746 -0.7147,4.66225 -0.4831,1.32855 -1.1186,2.43978 -1.9007,3.36672 v 0.002 0.002 c -0.7605,0.90675 -1.6611,1.6637 -2.7264,2.28512 l -0.01,0.004 -0.01,0.004 c -1.0762,0.64572 -2.2311,1.18621 -3.4705,1.62108 -1.2278,0.40891 -2.4861,0.7244 -3.7791,0.94517 -1.339,0.2286 -2.6093,0.40727 -3.8086,0.53692 l -1.2521,0.13489 v 1.25986 18.62521 h 11.5745 l 1.4019,-8.3168 c 2.7869,-0.63691 5.4989,-1.4242 8.0471,-2.52905 2.926,-1.25399 5.4969,-2.88626 7.6838,-4.89633 2.2344,-2.02319 4.0117,-4.46555 5.3159,-7.28535 1.3313,-2.87856 1.9766,-6.19945 1.9766,-9.92188 0,-3.51951 -0.7281,-6.68409 -2.2184,-9.41027 -1.4604,-2.6716 -3.4396,-4.91908 -5.8989,-6.7011 -2.4408,-1.76877 -5.2462,-3.08922 -8.3845,-3.961 -3.117,-0.86582 -6.3698,-1.29789 -9.7451,-1.29913 z m -3.5796,62.84629 c -1.5393,-0.15393 -3.0329,0.3071 -4.4117,0.91985 l -0.01,0.002 -0.01,0.004 c -1.3121,0.59983 -2.4893,1.41494 -3.5042,2.42982 -0.9925,0.99248 -1.7782,2.16509 -2.3435,3.48404 -0.5735,1.33821 -0.8635,2.77056 -0.8635,4.24831 0,1.44923 0.2913,2.83146 0.8811,4.08969 0.5742,1.22499 1.3704,2.31198 2.3652,3.2303 l 0.022,0.0196 0.021,0.0176 c 1.034,0.86659 2.208,1.55916 3.5155,2.04483 l 0.01,0.002 0.01,0.002 c 1.3581,0.49042 2.8074,0.73279 4.3201,0.73279 1.5128,0 2.9621,-0.24237 4.3202,-0.73279 1.3408,-0.48423 2.5316,-1.17302 3.5372,-2.06034 1.0378,-0.88668 1.8639,-1.96642 2.4433,-3.1993 0.6219,-1.28603 0.9374,-2.68834 0.9374,-4.14652 0,-1.48495 -0.3109,-2.92352 -0.9214,-4.26382 -0.5658,-1.314 -1.371,-2.47966 -2.389,-3.4649 -0.9899,-1.02293 -2.1707,-1.84232 -3.5134,-2.43911 -1.3788,-0.61278 -2.8751,-0.76594 -4.4143,-0.91986 z" />
    </g>
  </g>
</svg>
