<?xml version="1.0" encoding="UTF-8" standalone="no"?>
<svg
   xmlns:dc="http://purl.org/dc/elements/1.1/"
   xmlns:cc="http://creativecommons.org/ns#"
   xmlns:rdf="http://www.w3.org/1999/02/22-rdf-syntax-ns#"
   xmlns:svg="http://www.w3.org/2000/svg"
   xmlns="http://www.w3.org/2000/svg"
   width="33.309921mm"
   height="73.821053mm"
   viewBox="0 0 33.309921 73.82105"
   version="1.1"
   id="svg9566">
  <defs
     id="defs9560" />
  <metadata
     id="metadata9563">
    <rdf:RDF>
      <cc:Work
         rdf:about="">
        <dc:format>image/svg+xml</dc:format>
        <dc:type
           rdf:resource="http://purl.org/dc/dcmitype/StillImage" />
        <dc:title></dc:title>
      </cc:Work>
    </rdf:RDF>
  </metadata>
  <g
     id="layer1"
     transform="translate(-168.44607,-32.080317)">
    <g
       id="g9530"
       transform="translate(-1376.4952,-678.84496)">
      <g
         id="g2502"
         style="opacity:1;fill:#1560a0;fill-opacity:1"
         transform="matrix(1.5382731,0,0,1.5382731,-1669.4545,260.77762)">
        <path
           id="path2504"
           style="color:#000000;font-style:normal;font-variant:normal;font-weight:normal;font-stretch:normal;font-size:medium;line-height:normal;font-family:sans-serif;font-variant-ligatures:normal;font-variant-position:normal;font-variant-caps:normal;font-variant-numeric:normal;font-variant-alternates:normal;font-variant-east-asian:normal;font-feature-settings:normal;font-variation-settings:normal;text-indent:0;text-align:start;text-decoration:none;text-decoration-line:none;text-decoration-style:solid;text-decoration-color:#000000;letter-spacing:normal;word-spacing:normal;text-transform:none;writing-mode:lr-tb;direction:ltr;text-orientation:mixed;dominant-baseline:auto;baseline-shift:baseline;text-anchor:start;white-space:normal;shape-padding:0;shape-margin:0;inline-size:0;clip-rule:nonzero;display:inline;overflow:visible;visibility:visible;isolation:auto;mix-blend-mode:normal;color-interpolation:sRGB;color-interpolation-filters:linearRGB;solid-color:#000000;solid-opacity:1;vector-effect:none;fill:#1560a0;fill-opacity:1;fill-rule:nonzero;stroke:none;stroke-width:3;stroke-linecap:butt;stroke-linejoin:miter;stroke-miterlimit:4;stroke-dasharray:none;stroke-dashoffset:0;stroke-opacity:1;color-rendering:auto;image-rendering:auto;shape-rendering:auto;text-rendering:auto;enable-background:accumulate;stop-color:#000000;stop-opacity:1"
           d="m 2103.8533,292.63182 c -3.744,0 -7.0781,2.5517 -7.0781,6.06267 0,3.51096 3.3341,6.06218 7.0781,6.06218 3.7438,0 7.0781,-2.55127 7.0781,-6.06218 0,-3.51092 -3.3343,-6.06267 -7.0781,-6.06267 z m 7.414,13.11704 -17.9627,1.08003 -1.1916,4.35374 1.8417,0.11317 2.496,0.15451 c 0.1364,0.0153 0.2065,0.0328 0.2423,0.0434 0,0.0209 0.01,0.046 0.01,0.10854 0,0.30887 -0.184,0.8382 -0.184,0.8382 l -0.029,0.0682 -0.023,0.0687 c 0,0 -0.6597,1.97294 -1.5647,4.70304 -0.9927,2.99493 -2.2815,6.90065 -3.3239,10.11878 -0.5212,1.60906 -0.9807,3.04655 -1.3125,4.11758 -0.1659,0.53552 -0.3,0.97803 -0.3964,1.3162 -0.048,0.16906 -0.086,0.31003 -0.1173,0.4377 -0.031,0.12766 -0.08,0.0756 -0.08,0.54673 0,-0.18365 -0.055,0.35692 -0.059,0.91004 0,0.55308 0.064,1.27706 0.3731,2.04689 0.6191,1.53964 2.2607,3.04202 5.1992,3.71089 1.8465,0.42026 3.6486,-0.18471 5.2596,-1.09556 1.611,-0.91083 3.1022,-2.17816 4.4121,-3.46282 2.6199,-2.56936 4.5274,-5.26584 4.5274,-5.26584 l 0.9803,-1.38287 -4.0468,-2.18125 -0.7462,1.19115 c 0,0 -1.0916,1.71792 -2.2794,3.19154 -0.4774,0.47048 -0.49,0.4214 -0.785,0.63251 0.024,-0.12308 0.055,-0.31467 0.059,-0.32813 z" />
      </g>
    </g>
  </g>
</svg>
