<?xml version="1.0" encoding="UTF-8" standalone="no"?>
<svg
   xmlns:dc="http://purl.org/dc/elements/1.1/"
   xmlns:cc="http://creativecommons.org/ns#"
   xmlns:rdf="http://www.w3.org/1999/02/22-rdf-syntax-ns#"
   xmlns:svg="http://www.w3.org/2000/svg"
   xmlns="http://www.w3.org/2000/svg"
   width="112.36228mm"
   height="112.36382mm"
   viewBox="0 0 112.36228 112.36382"
   version="1.1"
   id="svg9566">
  <defs
     id="defs9560" />
  <metadata
     id="metadata9563">
    <rdf:RDF>
      <cc:Work
         rdf:about="">
        <dc:format>image/svg+xml</dc:format>
        <dc:type
           rdf:resource="http://purl.org/dc/dcmitype/StillImage" />
        <dc:title></dc:title>
      </cc:Work>
    </rdf:RDF>
  </metadata>
  <g
     id="layer1"
     transform="translate(-15.98901,-34.40342)">
    <g
       id="g9530"
       transform="translate(-1376.4952,-678.84496)">
      <path
         id="path4589"
         stroke-miterlimit="4"
         d="m 1448.6656,718.24837 c -2.6516,0 -5.3087,0.33837 -7.8518,0.727 -0.4043,6.5194 -1.4283,12.88298 -6.8339,15.12189 -5.4177,2.24415 -10.507,-1.62564 -15.4125,-5.96152 -4.289,3.13056 -8.2072,6.90952 -11.3412,11.19627 4.353,4.91946 8.3585,9.97756 6.1071,15.41248 -2.2488,5.42912 -8.7185,6.43239 -15.2675,6.83389 -0.3981,2.57221 -0.5816,5.16809 -0.5816,7.85182 0,2.71803 0.174,5.39358 0.5816,7.99684 6.549,0.40093 13.0183,1.114 15.2675,6.54329 2.2514,5.43531 -1.7539,10.78396 -6.1071,15.70365 3.1184,4.25427 7.0829,7.93713 11.3412,11.05068 4.89,-4.317 10.014,-8.05257 15.4125,-5.81594 5.4291,2.24875 6.4324,8.57292 6.8339,15.12189 2.543,0.38898 5.2001,0.5816 7.8518,0.5816 2.6517,0 5.1634,-0.19336 7.7063,-0.5816 0.4009,-6.54897 1.4048,-12.87331 6.8339,-15.12189 5.3986,-2.23623 10.5229,1.49905 15.4124,5.81594 4.2582,-3.11344 8.2226,-6.79635 11.3413,-11.05068 -4.353,-4.91952 -8.3585,-10.26817 -6.1071,-15.70365 2.2488,-5.42912 8.8635,-6.14179 15.4125,-6.54329 0.4077,-2.60355 0.5816,-5.27909 0.5816,-7.99684 0,-2.68362 -0.1843,-5.2795 -0.5816,-7.85182 -6.549,-0.40093 -13.1639,-1.40483 -15.4125,-6.83389 -2.2514,-5.43526 1.7539,-10.49336 6.1071,-15.41248 -3.134,-4.28641 -7.0522,-8.06566 -11.3413,-11.19627 -4.9053,4.33583 -9.9952,8.20555 -15.4124,5.96152 -5.4057,-2.23908 -6.4296,-8.60249 -6.8339,-15.12189 -2.543,-0.38898 -5.0547,-0.727 -7.7063,-0.727 z m 0,34.46057 c 9.2474,0 16.7211,7.47366 16.7211,16.72103 0,9.24738 -7.4737,16.72103 -16.7211,16.72103 -9.2474,0 -16.8666,-7.47365 -16.8666,-16.72103 0,-9.24737 7.6192,-16.72103 16.8666,-16.72103 z"
         style="color:#000000;fill:#96b6e6;fill-opacity:1;stroke:#1560a0;stroke-width:9.99998;stroke-linecap:square;stroke-linejoin:bevel;stroke-miterlimit:4;stroke-dasharray:none;stroke-opacity:1;enable-background:accumulate" />
    </g>
  </g>
</svg>
