<svg xmlns="http://www.w3.org/2000/svg" viewBox="0 0 399.054 202.141"><g stroke="#3556c8"><path fill="none" stroke-linecap="round" stroke-linejoin="round" stroke-width="15" d="M281.734 178.666l42.869 15.976 3.226-71.792-54.852-65.338-53.238-12.906-.807 58.084"/><path fill="none" stroke-linejoin="round" stroke-width="15" d="M272.977 57.512l64.532-43.559L272.171 7.5l-52.432 37.106z"/><path fill="#3556c8" stroke-linejoin="round" stroke-width="15" d="M337.509 13.953l-64.532 43.559 54.852 65.338 63.725-47.592z"/><path fill="none" stroke-linejoin="round" stroke-width="15" d="M327.83 122.85l-3.227 71.792 66.951-56.465V75.258L327.83 122.85"/><path fill="none" stroke-linecap="round" stroke-width="26.458" d="M252.402 183.12V94.23M297.03 138.768h-89.073"/></g><g fill="#3556c8" font-family="sans-serif" font-size="22.35" font-weight="400" letter-spacing="0" word-spacing="0"><path d="M57.508 136.489H33.176v-16.3q0-7.108-.81-8.842-.751-1.792-3.41-1.792-3.005 0-3.814 2.139-.81 2.138-.81 9.247v43.463q0 6.82.81 8.901.809 2.08 3.64 2.08 2.717 0 3.527-2.08.867-2.08.867-9.768v-11.732h24.332v3.64q0 14.508-2.081 20.577-2.023 6.068-9.074 10.634-6.993 4.566-17.281 4.566-10.693 0-17.628-3.872-6.936-3.873-9.19-10.693Q0 169.78 0 156.024v-27.338q0-10.114.694-15.143.693-5.086 4.103-9.767 3.468-4.682 9.537-7.34 6.126-2.717 14.044-2.717 10.75 0 17.744 4.161 6.993 4.162 9.19 10.404 2.196 6.184 2.196 19.304zM108.37 95.684l13.928 93.573h-24.91l-1.214-16.819h-8.727l-1.445 16.82h-25.2l12.369-93.574zM95.48 155.85q-1.85-15.894-3.699-39.244-3.699 26.818-4.623 39.244zM126.46 95.684h18.206q17.628 0 23.812 1.618 6.242 1.619 9.479 5.318 3.236 3.699 4.045 8.265.81 4.508.81 17.801v32.77q0 12.6-1.214 16.877-1.156 4.22-4.104 6.647-2.948 2.37-7.282 3.352-4.335.925-13.063.925h-30.69zm24.332 16.01v61.553q5.26 0 6.473-2.08 1.214-2.139 1.214-11.502v-36.354q0-6.358-.403-8.15-.408-1.791-1.85-2.6-1.444-.867-5.433-.867z" style="line-height:1.25"/></g></svg>